<?xml version="1.0" encoding="UTF-8" standalone="no"?>
<!DOCTYPE svg PUBLIC "-//W3C//DTD SVG 1.1//EN"
 "http://www.w3.org/Graphics/SVG/1.1/DTD/svg11.dtd">
<!-- Generated by graphviz version 2.38.0 (20140413.2041)
 -->
<!-- Title: G Pages: 1 -->
<svg width="810pt" height="950pt"
 viewBox="0.00 0.00 809.58 950.00" xmlns="http://www.w3.org/2000/svg" xmlns:xlink="http://www.w3.org/1999/xlink">
<g id="graph0" class="graph" transform="scale(1 1) rotate(0) translate(4 946)">
<title>G</title>
<polygon fill="white" stroke="none" points="-4,4 -4,-946 805.58,-946 805.58,4 -4,4"/>
<g id="clust1" class="cluster"><title>cluster_Global</title>
<path fill="none" stroke="gray" d="M20,-98C20,-98 781.58,-98 781.58,-98 787.58,-98 793.58,-104 793.58,-110 793.58,-110 793.58,-922 793.58,-922 793.58,-928 787.58,-934 781.58,-934 781.58,-934 20,-934 20,-934 14,-934 8,-928 8,-922 8,-922 8,-110 8,-110 8,-104 14,-98 20,-98"/>
<text text-anchor="middle" x="400.79" y="-921.2" font-family="Times,serif" font-size="11.00" fill="gray">Global</text>
</g>
<g id="clust2" class="cluster"><title>cluster_\StoreIntegrator</title>
<path fill="none" stroke="gray" d="M28,-106C28,-106 773.58,-106 773.58,-106 779.58,-106 785.58,-112 785.58,-118 785.58,-118 785.58,-894 785.58,-894 785.58,-900 779.58,-906 773.58,-906 773.58,-906 28,-906 28,-906 22,-906 16,-900 16,-894 16,-894 16,-118 16,-118 16,-112 22,-106 28,-106"/>
<text text-anchor="middle" x="400.79" y="-893.2" font-family="Times,serif" font-size="11.00" fill="gray">StoreIntegrator</text>
</g>
<g id="clust3" class="cluster"><title>cluster_\StoreIntegrator\Contracts</title>
<path fill="none" stroke="gray" d="M36,-644C36,-644 240,-644 240,-644 246,-644 252,-650 252,-656 252,-656 252,-866 252,-866 252,-872 246,-878 240,-878 240,-878 36,-878 36,-878 30,-878 24,-872 24,-866 24,-866 24,-656 24,-656 24,-650 30,-644 36,-644"/>
<text text-anchor="middle" x="138" y="-865.2" font-family="Times,serif" font-size="11.00" fill="gray">Contracts</text>
</g>
<g id="clust4" class="cluster"><title>cluster_\StoreIntegrator\eBay</title>
<path fill="none" stroke="gray" d="M386.29,-418C386.29,-418 765.58,-418 765.58,-418 771.58,-418 777.58,-424 777.58,-430 777.58,-430 777.58,-802 777.58,-802 777.58,-808 771.58,-814 765.58,-814 765.58,-814 386.29,-814 386.29,-814 380.29,-814 374.29,-808 374.29,-802 374.29,-802 374.29,-430 374.29,-430 374.29,-424 380.29,-418 386.29,-418"/>
<text text-anchor="middle" x="575.935" y="-801.2" font-family="Times,serif" font-size="11.00" fill="gray">eBay</text>
</g>
<g id="clust5" class="cluster"><title>cluster_\StoreIntegrator\Amazon</title>
<path fill="none" stroke="gray" d="M389.79,-240C389.79,-240 738.58,-240 738.58,-240 744.58,-240 750.58,-246 750.58,-252 750.58,-252 750.58,-354 750.58,-354 750.58,-360 744.58,-366 738.58,-366 738.58,-366 389.79,-366 389.79,-366 383.79,-366 377.79,-360 377.79,-354 377.79,-354 377.79,-252 377.79,-252 377.79,-246 383.79,-240 389.79,-240"/>
<text text-anchor="middle" x="564.185" y="-353.2" font-family="Times,serif" font-size="11.00" fill="gray">Amazon</text>
</g>
<g id="clust6" class="cluster"><title>cluster_\StoreIntegrator\Exceptions</title>
<path fill="none" stroke="gray" d="M622.08,-160C622.08,-160 759.08,-160 759.08,-160 765.08,-160 771.08,-166 771.08,-172 771.08,-172 771.08,-220 771.08,-220 771.08,-226 765.08,-232 759.08,-232 759.08,-232 622.08,-232 622.08,-232 616.08,-232 610.08,-226 610.08,-220 610.08,-220 610.08,-172 610.08,-172 610.08,-166 616.08,-160 622.08,-160"/>
<text text-anchor="middle" x="690.58" y="-219.2" font-family="Times,serif" font-size="11.00" fill="gray">Exceptions</text>
</g>
<!-- \\StoreIntegrator\\Contracts\\OrderIntegratorInterface -->
<g id="node1" class="node"><title>\\StoreIntegrator\\Contracts\\OrderIntegratorInterface</title>
<polygon fill="none" stroke="black" points="227.5,-850 48.5,-850 48.5,-814 227.5,-814 227.5,-850"/>
<text text-anchor="middle" x="138" y="-829.2" font-family="Courier,monospace" font-size="11.00">OrderIntegratorInterface</text>
</g>
<!-- \\StoreIntegrator\\Contracts\\CategoriesAggregatorInterface -->
<g id="node2" class="node"><title>\\StoreIntegrator\\Contracts\\CategoriesAggregatorInterface</title>
<polygon fill="none" stroke="black" points="244,-688 32,-688 32,-652 244,-652 244,-688"/>
<text text-anchor="middle" x="138" y="-667.2" font-family="Courier,monospace" font-size="11.00">CategoriesAggregatorInterface</text>
</g>
<!-- \\StoreIntegrator\\Contracts\\ShippingServiceInterface -->
<g id="node3" class="node"><title>\\StoreIntegrator\\Contracts\\ShippingServiceInterface</title>
<polygon fill="none" stroke="black" points="227.5,-796 48.5,-796 48.5,-760 227.5,-760 227.5,-796"/>
<text text-anchor="middle" x="138" y="-775.2" font-family="Courier,monospace" font-size="11.00">ShippingServiceInterface</text>
</g>
<!-- \\StoreIntegrator\\Contracts\\ProductIntegratorInterface -->
<g id="node4" class="node"><title>\\StoreIntegrator\\Contracts\\ProductIntegratorInterface</title>
<polygon fill="none" stroke="black" points="234,-742 42,-742 42,-706 234,-706 234,-742"/>
<text text-anchor="middle" x="138" y="-721.2" font-family="Courier,monospace" font-size="11.00">ProductIntegratorInterface</text>
</g>
<!-- \\StoreIntegrator\\eBay\\EbayProductIntegrator -->
<g id="node5" class="node"><title>\\StoreIntegrator\\eBay\\EbayProductIntegrator</title>
<polygon fill="none" stroke="black" points="769.58,-678 611.58,-678 611.58,-642 769.58,-642 769.58,-678"/>
<text text-anchor="middle" x="690.58" y="-657.2" font-family="Courier,monospace" font-size="11.00">EbayProductIntegrator</text>
</g>
<!-- \\StoreIntegrator\\eBay\\EbayProductIntegrator&#45;&gt;\\StoreIntegrator\\Contracts\\CategoriesAggregatorInterface -->
<g id="edge2" class="edge"><title>\\StoreIntegrator\\eBay\\EbayProductIntegrator&#45;&gt;\\StoreIntegrator\\Contracts\\CategoriesAggregatorInterface</title>
<path fill="none" stroke="black" stroke-dasharray="1,5" d="M611.432,-674.045C559.786,-682.595 490.488,-692.678 428.79,-697"/>
<path fill="none" stroke="black" stroke-dasharray="1,5" d="M426.79,-697C369.532,-701.011 305.989,-696.048 253.208,-689.33"/>
<polygon fill="none" stroke="black" points="253.512,-685.839 243.142,-688.011 252.602,-692.78 253.512,-685.839"/>
</g>
<!-- \\StoreIntegrator\\eBay\\EbayProductIntegrator&#45;&gt;\\StoreIntegrator\\Contracts\\ProductIntegratorInterface -->
<g id="edge1" class="edge"><title>\\StoreIntegrator\\eBay\\EbayProductIntegrator&#45;&gt;\\StoreIntegrator\\Contracts\\ProductIntegratorInterface</title>
<path fill="none" stroke="black" stroke-dasharray="1,5" d="M426.79,-697C377.62,-700.444 365.115,-697.846 316,-702 292.781,-703.964 267.919,-706.674 244.386,-709.522"/>
<polygon fill="none" stroke="black" points="243.889,-706.057 234.39,-710.749 244.742,-713.005 243.889,-706.057"/>
</g>
<!-- \\StoreIntegrator\\eBay\\EbayShippingService -->
<g id="node6" class="node"><title>\\StoreIntegrator\\eBay\\EbayShippingService</title>
<polygon fill="none" stroke="black" points="763.08,-732 618.08,-732 618.08,-696 763.08,-696 763.08,-732"/>
<text text-anchor="middle" x="690.58" y="-711.2" font-family="Courier,monospace" font-size="11.00">EbayShippingService</text>
</g>
<!-- \\StoreIntegrator\\ShippingService -->
<g id="node19" class="node"><title>\\StoreIntegrator\\ShippingService</title>
<polygon fill="none" stroke="black" points="486.79,-858 368.79,-858 368.79,-822 486.79,-822 486.79,-858"/>
<text text-anchor="start" x="393.79" y="-843.2" font-family="Courier,monospace" font-size="11.00">«abstract»</text>
<text text-anchor="start" x="376.79" y="-831.2" font-family="Courier,monospace" font-size="11.00">ShippingService</text>
</g>
<!-- \\StoreIntegrator\\eBay\\EbayShippingService&#45;&gt;\\StoreIntegrator\\ShippingService -->
<g id="edge3" class="edge"><title>\\StoreIntegrator\\eBay\\EbayShippingService&#45;&gt;\\StoreIntegrator\\ShippingService</title>
<path fill="none" stroke="black" d="M626.544,-732.042C620.79,-734.678 615.206,-737.653 610.08,-741 571.228,-766.367 580.013,-795.238 539.58,-818 526.668,-825.269 511.726,-830.164 497.077,-833.452"/>
<polygon fill="none" stroke="black" points="496.122,-830.074 487.011,-835.482 497.506,-836.936 496.122,-830.074"/>
</g>
<!-- \\StoreIntegrator\\eBay\\OrdersWrapper -->
<g id="node7" class="node"><title>\\StoreIntegrator\\eBay\\OrdersWrapper</title>
<polygon fill="none" stroke="black" points="742.58,-516 638.58,-516 638.58,-480 742.58,-480 742.58,-516"/>
<text text-anchor="middle" x="690.58" y="-495.2" font-family="Courier,monospace" font-size="11.00">OrdersWrapper</text>
</g>
<!-- \\StoreIntegrator\\eBay\\EbayWrapper -->
<g id="node12" class="node"><title>\\StoreIntegrator\\eBay\\EbayWrapper</title>
<polygon fill="none" stroke="black" points="473.29,-543 382.29,-543 382.29,-507 473.29,-507 473.29,-543"/>
<text text-anchor="start" x="393.79" y="-528.2" font-family="Courier,monospace" font-size="11.00">«abstract»</text>
<text text-anchor="start" x="390.29" y="-516.2" font-family="Courier,monospace" font-size="11.00">EbayWrapper</text>
</g>
<!-- \\StoreIntegrator\\eBay\\OrdersWrapper&#45;&gt;\\StoreIntegrator\\eBay\\EbayWrapper -->
<g id="edge4" class="edge"><title>\\StoreIntegrator\\eBay\\OrdersWrapper&#45;&gt;\\StoreIntegrator\\eBay\\EbayWrapper</title>
<path fill="none" stroke="black" d="M638.368,-503.302C593.685,-507.928 529.039,-514.621 483.385,-519.348"/>
<polygon fill="none" stroke="black" points="482.955,-515.873 473.369,-520.385 483.676,-522.836 482.955,-515.873"/>
</g>
<!-- \\StoreIntegrator\\eBay\\CategoriesWrapper -->
<g id="node8" class="node"><title>\\StoreIntegrator\\eBay\\CategoriesWrapper</title>
<polygon fill="none" stroke="black" points="756.08,-462 625.08,-462 625.08,-426 756.08,-426 756.08,-462"/>
<text text-anchor="middle" x="690.58" y="-441.2" font-family="Courier,monospace" font-size="11.00">CategoriesWrapper</text>
</g>
<!-- \\StoreIntegrator\\eBay\\CategoriesWrapper&#45;&gt;\\StoreIntegrator\\eBay\\EbayWrapper -->
<g id="edge5" class="edge"><title>\\StoreIntegrator\\eBay\\CategoriesWrapper&#45;&gt;\\StoreIntegrator\\eBay\\EbayWrapper</title>
<path fill="none" stroke="black" d="M634.154,-462.039C626.033,-464.909 617.806,-467.943 610.08,-471 578.083,-483.659 572.339,-492.468 539.58,-503 521.544,-508.798 501.343,-513.354 483.179,-516.778"/>
<polygon fill="none" stroke="black" points="482.539,-513.337 473.324,-518.565 483.788,-520.225 482.539,-513.337"/>
</g>
<!-- \\StoreIntegrator\\eBay\\DetailsWrapper -->
<g id="node9" class="node"><title>\\StoreIntegrator\\eBay\\DetailsWrapper</title>
<polygon fill="none" stroke="black" points="746.08,-624 635.08,-624 635.08,-588 746.08,-588 746.08,-624"/>
<text text-anchor="middle" x="690.58" y="-603.2" font-family="Courier,monospace" font-size="11.00">DetailsWrapper</text>
</g>
<!-- \\StoreIntegrator\\eBay\\DetailsWrapper&#45;&gt;\\StoreIntegrator\\eBay\\EbayWrapper -->
<g id="edge11" class="edge"><title>\\StoreIntegrator\\eBay\\DetailsWrapper&#45;&gt;\\StoreIntegrator\\eBay\\EbayWrapper</title>
<path fill="none" stroke="black" d="M634.91,-589.02C590.337,-575.176 527.698,-555.72 483.196,-541.898"/>
<polygon fill="none" stroke="black" points="484.014,-538.487 473.426,-538.864 481.938,-545.172 484.014,-538.487"/>
</g>
<!-- \\StoreIntegrator\\eBay\\EbayOrderIntegrator -->
<g id="node10" class="node"><title>\\StoreIntegrator\\eBay\\EbayOrderIntegrator</title>
<polygon fill="none" stroke="black" points="763.08,-786 618.08,-786 618.08,-750 763.08,-750 763.08,-786"/>
<text text-anchor="middle" x="690.58" y="-765.2" font-family="Courier,monospace" font-size="11.00">EbayOrderIntegrator</text>
</g>
<!-- \\StoreIntegrator\\eBay\\EbayOrderIntegrator&#45;&gt;\\StoreIntegrator\\Contracts\\OrderIntegratorInterface -->
<g id="edge12" class="edge"><title>\\StoreIntegrator\\eBay\\EbayOrderIntegrator&#45;&gt;\\StoreIntegrator\\Contracts\\OrderIntegratorInterface</title>
<path fill="none" stroke="black" stroke-dasharray="1,5" d="M671.283,-786.392C644.904,-811.46 593.414,-855.163 539.58,-872 423.797,-908.212 280.865,-876.929 200.829,-853.031"/>
<polygon fill="none" stroke="black" points="201.498,-849.576 190.912,-850.011 199.459,-856.273 201.498,-849.576"/>
</g>
<!-- \\StoreIntegrator\\eBay\\ProductWrapper -->
<g id="node11" class="node"><title>\\StoreIntegrator\\eBay\\ProductWrapper</title>
<polygon fill="none" stroke="black" points="746.08,-570 635.08,-570 635.08,-534 746.08,-534 746.08,-570"/>
<text text-anchor="middle" x="690.58" y="-549.2" font-family="Courier,monospace" font-size="11.00">ProductWrapper</text>
</g>
<!-- \\StoreIntegrator\\eBay\\ProductWrapper&#45;&gt;\\StoreIntegrator\\eBay\\EbayWrapper -->
<g id="edge13" class="edge"><title>\\StoreIntegrator\\eBay\\ProductWrapper&#45;&gt;\\StoreIntegrator\\eBay\\EbayWrapper</title>
<path fill="none" stroke="black" d="M634.91,-546.34C590.43,-541.735 527.961,-535.267 483.477,-530.662"/>
<polygon fill="none" stroke="black" points="483.733,-527.17 473.426,-529.621 483.012,-534.132 483.733,-527.17"/>
</g>
<!-- \\StoreIntegrator\\Amazon\\XMLBuilder -->
<g id="node13" class="node"><title>\\StoreIntegrator\\Amazon\\XMLBuilder</title>
<polygon fill="none" stroke="black" points="469.79,-338 385.79,-338 385.79,-302 469.79,-302 469.79,-338"/>
<text text-anchor="start" x="393.79" y="-323.2" font-family="Courier,monospace" font-size="11.00">«abstract»</text>
<text text-anchor="start" x="393.79" y="-311.2" font-family="Courier,monospace" font-size="11.00">XMLBuilder</text>
</g>
<!-- \\StoreIntegrator\\Amazon\\ProductFeed -->
<g id="node14" class="node"><title>\\StoreIntegrator\\Amazon\\ProductFeed</title>
<polygon fill="none" stroke="black" points="736.08,-338 645.08,-338 645.08,-302 736.08,-302 736.08,-338"/>
<text text-anchor="middle" x="690.58" y="-317.2" font-family="Courier,monospace" font-size="11.00">ProductFeed</text>
</g>
<!-- \\StoreIntegrator\\Amazon\\ProductFeed&#45;&gt;\\StoreIntegrator\\Amazon\\XMLBuilder -->
<g id="edge7" class="edge"><title>\\StoreIntegrator\\Amazon\\ProductFeed&#45;&gt;\\StoreIntegrator\\Amazon\\XMLBuilder</title>
<path fill="none" stroke="black" d="M645.045,-320C599.37,-320 528.395,-320 480.322,-320"/>
<polygon fill="none" stroke="black" points="480.129,-316.5 470.129,-320 480.129,-323.5 480.129,-316.5"/>
</g>
<!-- \\StoreIntegrator\\Amazon\\AmazonProduct -->
<g id="node15" class="node"><title>\\StoreIntegrator\\Amazon\\AmazonProduct</title>
<polygon fill="none" stroke="black" points="742.58,-284 638.58,-284 638.58,-248 742.58,-248 742.58,-284"/>
<text text-anchor="middle" x="690.58" y="-263.2" font-family="Courier,monospace" font-size="11.00">AmazonProduct</text>
</g>
<!-- \\StoreIntegrator\\Product -->
<g id="node18" class="node"><title>\\StoreIntegrator\\Product</title>
<polygon fill="none" stroke="black" points="459.79,-410 395.79,-410 395.79,-374 459.79,-374 459.79,-410"/>
<text text-anchor="middle" x="427.79" y="-389.2" font-family="Courier,monospace" font-size="11.00">Product</text>
</g>
<!-- \\StoreIntegrator\\Amazon\\AmazonProduct&#45;&gt;\\StoreIntegrator\\Product -->
<g id="edge9" class="edge"><title>\\StoreIntegrator\\Amazon\\AmazonProduct&#45;&gt;\\StoreIntegrator\\Product</title>
<path fill="none" stroke="black" d="M638.192,-279.214C628.439,-282.875 618.624,-287.422 610.08,-293 571.228,-318.367 580.013,-347.238 539.58,-370 518.485,-381.876 491.972,-387.414 470.172,-389.965"/>
<polygon fill="none" stroke="black" points="469.809,-386.484 460.209,-390.966 470.509,-393.449 469.809,-386.484"/>
</g>
<!-- \\Sabre\\Xml\\XmlSerializable -->
<g id="node21" class="node"><title>\\Sabre\\Xml\\XmlSerializable</title>
<ellipse fill="none" stroke="black" cx="427.79" cy="-72" rx="111.581" ry="18"/>
<text text-anchor="middle" x="427.79" y="-68.3" font-family="Times,serif" font-size="14.00" fill="gray">\Sabre\Xml\XmlSerializable</text>
</g>
<!-- \\StoreIntegrator\\Amazon\\AmazonProduct&#45;&gt;\\Sabre\\Xml\\XmlSerializable -->
<g id="edge10" class="edge"><title>\\StoreIntegrator\\Amazon\\AmazonProduct&#45;&gt;\\Sabre\\Xml\\XmlSerializable</title>
<path fill="none" stroke="black" stroke-dasharray="1,5" d="M638.2,-249.854C628.548,-245.928 618.768,-241.304 610.08,-236 545.588,-196.628 483.117,-132.7 451.047,-97.4129"/>
<polygon fill="none" stroke="black" points="453.596,-95.0129 444.305,-89.9211 448.393,-99.6956 453.596,-95.0129"/>
</g>
<!-- \\StoreIntegrator\\Exceptions\\ValidationException -->
<g id="node16" class="node"><title>\\StoreIntegrator\\Exceptions\\ValidationException</title>
<polygon fill="none" stroke="black" points="763.08,-204 618.08,-204 618.08,-168 763.08,-168 763.08,-204"/>
<text text-anchor="middle" x="690.58" y="-183.2" font-family="Courier,monospace" font-size="11.00">ValidationException</text>
</g>
<!-- \\Exception -->
<g id="node20" class="node"><title>\\Exception</title>
<ellipse fill="none" stroke="black" cx="427.79" cy="-18" rx="48.9926" ry="18"/>
<text text-anchor="middle" x="427.79" y="-14.3" font-family="Times,serif" font-size="14.00" fill="gray">\Exception</text>
</g>
<!-- \\StoreIntegrator\\Exceptions\\ValidationException&#45;&gt;\\Exception -->
<g id="edge8" class="edge"><title>\\StoreIntegrator\\Exceptions\\ValidationException&#45;&gt;\\Exception</title>
<path fill="none" stroke="black" d="M618.013,-169.257C615.242,-167.662 612.583,-165.914 610.08,-164 561.252,-126.652 588.98,-81.5884 539.58,-45 524.072,-33.5137 504.31,-26.8601 485.783,-23.0243"/>
<polygon fill="none" stroke="black" points="486.413,-19.5815 475.945,-21.2174 485.148,-26.4663 486.413,-19.5815"/>
</g>
<!-- \\StoreIntegrator\\Store -->
<g id="node17" class="node"><title>\\StoreIntegrator\\Store</title>
<polygon fill="none" stroke="black" points="717.58,-150 663.58,-150 663.58,-114 717.58,-114 717.58,-150"/>
<text text-anchor="middle" x="690.58" y="-129.2" font-family="Courier,monospace" font-size="11.00">Store</text>
</g>
<!-- \\StoreIntegrator\\ShippingService&#45;&gt;\\StoreIntegrator\\Contracts\\ShippingServiceInterface -->
<g id="edge6" class="edge"><title>\\StoreIntegrator\\ShippingService&#45;&gt;\\StoreIntegrator\\Contracts\\ShippingServiceInterface</title>
<path fill="none" stroke="black" stroke-dasharray="1,5" d="M368.657,-828.754C351.665,-825.387 333.073,-821.624 316,-818 286.916,-811.827 255.222,-804.77 226.794,-798.318"/>
<polygon fill="none" stroke="black" points="227.411,-794.87 216.884,-796.064 225.859,-801.695 227.411,-794.87"/>
</g>
</g>
</svg>
