<?xml version="1.0" encoding="UTF-8" standalone="no"?>
<!DOCTYPE svg PUBLIC "-//W3C//DTD SVG 1.1//EN"
 "http://www.w3.org/Graphics/SVG/1.1/DTD/svg11.dtd">
<!-- Generated by graphviz version 2.38.0 (20140413.2041)
 -->
<!-- Title: G Pages: 1 -->
<svg width="810pt" height="770pt"
 viewBox="0.00 0.00 809.58 770.00" xmlns="http://www.w3.org/2000/svg" xmlns:xlink="http://www.w3.org/1999/xlink">
<g id="graph0" class="graph" transform="scale(1 1) rotate(0) translate(4 766)">
<title>G</title>
<polygon fill="white" stroke="none" points="-4,4 -4,-766 805.58,-766 805.58,4 -4,4"/>
<g id="clust1" class="cluster"><title>cluster_Global</title>
<path fill="none" stroke="gray" d="M20,-44C20,-44 781.58,-44 781.58,-44 787.58,-44 793.58,-50 793.58,-56 793.58,-56 793.58,-742 793.58,-742 793.58,-748 787.58,-754 781.58,-754 781.58,-754 20,-754 20,-754 14,-754 8,-748 8,-742 8,-742 8,-56 8,-56 8,-50 14,-44 20,-44"/>
<text text-anchor="middle" x="400.79" y="-741.2" font-family="Times,serif" font-size="11.00" fill="gray">Global</text>
</g>
<g id="clust2" class="cluster"><title>cluster_\StoreIntegrator</title>
<path fill="none" stroke="gray" d="M28,-52C28,-52 773.58,-52 773.58,-52 779.58,-52 785.58,-58 785.58,-64 785.58,-64 785.58,-714 785.58,-714 785.58,-720 779.58,-726 773.58,-726 773.58,-726 28,-726 28,-726 22,-726 16,-720 16,-714 16,-714 16,-64 16,-64 16,-58 22,-52 28,-52"/>
<text text-anchor="middle" x="400.79" y="-713.2" font-family="Times,serif" font-size="11.00" fill="gray">StoreIntegrator</text>
</g>
<g id="clust3" class="cluster"><title>cluster_\StoreIntegrator\Contracts</title>
<path fill="none" stroke="gray" d="M36,-464C36,-464 240,-464 240,-464 246,-464 252,-470 252,-476 252,-476 252,-686 252,-686 252,-692 246,-698 240,-698 240,-698 36,-698 36,-698 30,-698 24,-692 24,-686 24,-686 24,-476 24,-476 24,-470 30,-464 36,-464"/>
<text text-anchor="middle" x="138" y="-685.2" font-family="Times,serif" font-size="11.00" fill="gray">Contracts</text>
</g>
<g id="clust4" class="cluster"><title>cluster_\StoreIntegrator\eBay</title>
<path fill="none" stroke="gray" d="M386.29,-238C386.29,-238 765.58,-238 765.58,-238 771.58,-238 777.58,-244 777.58,-250 777.58,-250 777.58,-622 777.58,-622 777.58,-628 771.58,-634 765.58,-634 765.58,-634 386.29,-634 386.29,-634 380.29,-634 374.29,-628 374.29,-622 374.29,-622 374.29,-250 374.29,-250 374.29,-244 380.29,-238 386.29,-238"/>
<text text-anchor="middle" x="575.935" y="-621.2" font-family="Times,serif" font-size="11.00" fill="gray">eBay</text>
</g>
<g id="clust5" class="cluster"><title>cluster_\StoreIntegrator\Amazon</title>
<path fill="none" stroke="gray" d="M389.79,-60C389.79,-60 738.58,-60 738.58,-60 744.58,-60 750.58,-66 750.58,-72 750.58,-72 750.58,-174 750.58,-174 750.58,-180 744.58,-186 738.58,-186 738.58,-186 389.79,-186 389.79,-186 383.79,-186 377.79,-180 377.79,-174 377.79,-174 377.79,-72 377.79,-72 377.79,-66 383.79,-60 389.79,-60"/>
<text text-anchor="middle" x="564.185" y="-173.2" font-family="Times,serif" font-size="11.00" fill="gray">Amazon</text>
</g>
<!-- \\StoreIntegrator\\Contracts\\OrderIntegratorInterface -->
<g id="node1" class="node"><title>\\StoreIntegrator\\Contracts\\OrderIntegratorInterface</title>
<polygon fill="none" stroke="black" points="227.5,-670 48.5,-670 48.5,-634 227.5,-634 227.5,-670"/>
<text text-anchor="middle" x="138" y="-649.2" font-family="Courier,monospace" font-size="11.00">OrderIntegratorInterface</text>
</g>
<!-- \\StoreIntegrator\\Contracts\\CategoriesAggregatorInterface -->
<g id="node2" class="node"><title>\\StoreIntegrator\\Contracts\\CategoriesAggregatorInterface</title>
<polygon fill="none" stroke="black" points="244,-508 32,-508 32,-472 244,-472 244,-508"/>
<text text-anchor="middle" x="138" y="-487.2" font-family="Courier,monospace" font-size="11.00">CategoriesAggregatorInterface</text>
</g>
<!-- \\StoreIntegrator\\Contracts\\ShippingServiceInterface -->
<g id="node3" class="node"><title>\\StoreIntegrator\\Contracts\\ShippingServiceInterface</title>
<polygon fill="none" stroke="black" points="227.5,-616 48.5,-616 48.5,-580 227.5,-580 227.5,-616"/>
<text text-anchor="middle" x="138" y="-595.2" font-family="Courier,monospace" font-size="11.00">ShippingServiceInterface</text>
</g>
<!-- \\StoreIntegrator\\Contracts\\ProductIntegratorInterface -->
<g id="node4" class="node"><title>\\StoreIntegrator\\Contracts\\ProductIntegratorInterface</title>
<polygon fill="none" stroke="black" points="234,-562 42,-562 42,-526 234,-526 234,-562"/>
<text text-anchor="middle" x="138" y="-541.2" font-family="Courier,monospace" font-size="11.00">ProductIntegratorInterface</text>
</g>
<!-- \\StoreIntegrator\\eBay\\EbayProductIntegrator -->
<g id="node5" class="node"><title>\\StoreIntegrator\\eBay\\EbayProductIntegrator</title>
<polygon fill="none" stroke="black" points="769.58,-498 611.58,-498 611.58,-462 769.58,-462 769.58,-498"/>
<text text-anchor="middle" x="690.58" y="-477.2" font-family="Courier,monospace" font-size="11.00">EbayProductIntegrator</text>
</g>
<!-- \\StoreIntegrator\\eBay\\EbayProductIntegrator&#45;&gt;\\StoreIntegrator\\Contracts\\CategoriesAggregatorInterface -->
<g id="edge2" class="edge"><title>\\StoreIntegrator\\eBay\\EbayProductIntegrator&#45;&gt;\\StoreIntegrator\\Contracts\\CategoriesAggregatorInterface</title>
<path fill="none" stroke="black" stroke-dasharray="1,5" d="M611.432,-494.045C559.786,-502.595 490.488,-512.678 428.79,-517"/>
<path fill="none" stroke="black" stroke-dasharray="1,5" d="M426.79,-517C369.532,-521.011 305.989,-516.048 253.208,-509.33"/>
<polygon fill="none" stroke="black" points="253.512,-505.839 243.142,-508.011 252.602,-512.78 253.512,-505.839"/>
</g>
<!-- \\StoreIntegrator\\eBay\\EbayProductIntegrator&#45;&gt;\\StoreIntegrator\\Contracts\\ProductIntegratorInterface -->
<g id="edge1" class="edge"><title>\\StoreIntegrator\\eBay\\EbayProductIntegrator&#45;&gt;\\StoreIntegrator\\Contracts\\ProductIntegratorInterface</title>
<path fill="none" stroke="black" stroke-dasharray="1,5" d="M426.79,-517C377.62,-520.444 365.115,-517.846 316,-522 292.781,-523.964 267.919,-526.674 244.386,-529.522"/>
<polygon fill="none" stroke="black" points="243.889,-526.057 234.39,-530.749 244.742,-533.005 243.889,-526.057"/>
</g>
<!-- \\StoreIntegrator\\eBay\\EbayShippingService -->
<g id="node6" class="node"><title>\\StoreIntegrator\\eBay\\EbayShippingService</title>
<polygon fill="none" stroke="black" points="763.08,-552 618.08,-552 618.08,-516 763.08,-516 763.08,-552"/>
<text text-anchor="middle" x="690.58" y="-531.2" font-family="Courier,monospace" font-size="11.00">EbayShippingService</text>
</g>
<!-- \\StoreIntegrator\\ShippingService -->
<g id="node17" class="node"><title>\\StoreIntegrator\\ShippingService</title>
<polygon fill="none" stroke="black" points="486.79,-678 368.79,-678 368.79,-642 486.79,-642 486.79,-678"/>
<text text-anchor="start" x="393.79" y="-663.2" font-family="Courier,monospace" font-size="11.00">«abstract»</text>
<text text-anchor="start" x="376.79" y="-651.2" font-family="Courier,monospace" font-size="11.00">ShippingService</text>
</g>
<!-- \\StoreIntegrator\\eBay\\EbayShippingService&#45;&gt;\\StoreIntegrator\\ShippingService -->
<g id="edge3" class="edge"><title>\\StoreIntegrator\\eBay\\EbayShippingService&#45;&gt;\\StoreIntegrator\\ShippingService</title>
<path fill="none" stroke="black" d="M627.771,-552.185C622.118,-554.792 616.627,-557.721 611.58,-561 572.29,-586.523 580.528,-615.231 539.58,-638 526.63,-645.201 511.672,-650.068 497.02,-653.351"/>
<polygon fill="none" stroke="black" points="496.065,-649.973 486.954,-655.38 497.449,-656.835 496.065,-649.973"/>
</g>
<!-- \\StoreIntegrator\\eBay\\OrdersWrapper -->
<g id="node7" class="node"><title>\\StoreIntegrator\\eBay\\OrdersWrapper</title>
<polygon fill="none" stroke="black" points="742.58,-336 638.58,-336 638.58,-300 742.58,-300 742.58,-336"/>
<text text-anchor="middle" x="690.58" y="-315.2" font-family="Courier,monospace" font-size="11.00">OrdersWrapper</text>
</g>
<!-- \\StoreIntegrator\\eBay\\EbayWrapper -->
<g id="node12" class="node"><title>\\StoreIntegrator\\eBay\\EbayWrapper</title>
<polygon fill="none" stroke="black" points="473.29,-363 382.29,-363 382.29,-327 473.29,-327 473.29,-363"/>
<text text-anchor="start" x="393.79" y="-348.2" font-family="Courier,monospace" font-size="11.00">«abstract»</text>
<text text-anchor="start" x="390.29" y="-336.2" font-family="Courier,monospace" font-size="11.00">EbayWrapper</text>
</g>
<!-- \\StoreIntegrator\\eBay\\OrdersWrapper&#45;&gt;\\StoreIntegrator\\eBay\\EbayWrapper -->
<g id="edge4" class="edge"><title>\\StoreIntegrator\\eBay\\OrdersWrapper&#45;&gt;\\StoreIntegrator\\eBay\\EbayWrapper</title>
<path fill="none" stroke="black" d="M638.368,-323.302C593.685,-327.928 529.039,-334.621 483.385,-339.348"/>
<polygon fill="none" stroke="black" points="482.955,-335.873 473.369,-340.385 483.676,-342.836 482.955,-335.873"/>
</g>
<!-- \\StoreIntegrator\\eBay\\CategoriesWrapper -->
<g id="node8" class="node"><title>\\StoreIntegrator\\eBay\\CategoriesWrapper</title>
<polygon fill="none" stroke="black" points="756.08,-282 625.08,-282 625.08,-246 756.08,-246 756.08,-282"/>
<text text-anchor="middle" x="690.58" y="-261.2" font-family="Courier,monospace" font-size="11.00">CategoriesWrapper</text>
</g>
<!-- \\StoreIntegrator\\eBay\\CategoriesWrapper&#45;&gt;\\StoreIntegrator\\eBay\\EbayWrapper -->
<g id="edge5" class="edge"><title>\\StoreIntegrator\\eBay\\CategoriesWrapper&#45;&gt;\\StoreIntegrator\\eBay\\EbayWrapper</title>
<path fill="none" stroke="black" d="M635.233,-282.147C627.26,-285.002 619.178,-288.003 611.58,-291 579.005,-303.85 572.96,-312.413 539.58,-323 521.522,-328.727 501.315,-333.265 483.153,-336.695"/>
<polygon fill="none" stroke="black" points="482.512,-333.255 473.3,-338.488 483.765,-340.142 482.512,-333.255"/>
</g>
<!-- \\StoreIntegrator\\eBay\\DetailsWrapper -->
<g id="node9" class="node"><title>\\StoreIntegrator\\eBay\\DetailsWrapper</title>
<polygon fill="none" stroke="black" points="746.08,-444 635.08,-444 635.08,-408 746.08,-408 746.08,-444"/>
<text text-anchor="middle" x="690.58" y="-423.2" font-family="Courier,monospace" font-size="11.00">DetailsWrapper</text>
</g>
<!-- \\StoreIntegrator\\eBay\\DetailsWrapper&#45;&gt;\\StoreIntegrator\\eBay\\EbayWrapper -->
<g id="edge10" class="edge"><title>\\StoreIntegrator\\eBay\\DetailsWrapper&#45;&gt;\\StoreIntegrator\\eBay\\EbayWrapper</title>
<path fill="none" stroke="black" d="M634.91,-409.02C590.337,-395.176 527.698,-375.72 483.196,-361.898"/>
<polygon fill="none" stroke="black" points="484.014,-358.487 473.426,-358.864 481.938,-365.172 484.014,-358.487"/>
</g>
<!-- \\StoreIntegrator\\eBay\\EbayOrderIntegrator -->
<g id="node10" class="node"><title>\\StoreIntegrator\\eBay\\EbayOrderIntegrator</title>
<polygon fill="none" stroke="black" points="763.08,-606 618.08,-606 618.08,-570 763.08,-570 763.08,-606"/>
<text text-anchor="middle" x="690.58" y="-585.2" font-family="Courier,monospace" font-size="11.00">EbayOrderIntegrator</text>
</g>
<!-- \\StoreIntegrator\\eBay\\EbayOrderIntegrator&#45;&gt;\\StoreIntegrator\\Contracts\\OrderIntegratorInterface -->
<g id="edge11" class="edge"><title>\\StoreIntegrator\\eBay\\EbayOrderIntegrator&#45;&gt;\\StoreIntegrator\\Contracts\\OrderIntegratorInterface</title>
<path fill="none" stroke="black" stroke-dasharray="1,5" d="M671.283,-606.392C644.904,-631.46 593.414,-675.163 539.58,-692 423.797,-728.212 280.865,-696.929 200.829,-673.031"/>
<polygon fill="none" stroke="black" points="201.498,-669.576 190.912,-670.011 199.459,-676.273 201.498,-669.576"/>
</g>
<!-- \\StoreIntegrator\\eBay\\ProductWrapper -->
<g id="node11" class="node"><title>\\StoreIntegrator\\eBay\\ProductWrapper</title>
<polygon fill="none" stroke="black" points="746.08,-390 635.08,-390 635.08,-354 746.08,-354 746.08,-390"/>
<text text-anchor="middle" x="690.58" y="-369.2" font-family="Courier,monospace" font-size="11.00">ProductWrapper</text>
</g>
<!-- \\StoreIntegrator\\eBay\\ProductWrapper&#45;&gt;\\StoreIntegrator\\eBay\\EbayWrapper -->
<g id="edge12" class="edge"><title>\\StoreIntegrator\\eBay\\ProductWrapper&#45;&gt;\\StoreIntegrator\\eBay\\EbayWrapper</title>
<path fill="none" stroke="black" d="M634.91,-366.34C590.43,-361.735 527.961,-355.267 483.477,-350.662"/>
<polygon fill="none" stroke="black" points="483.733,-347.17 473.426,-349.621 483.012,-354.132 483.733,-347.17"/>
</g>
<!-- \\StoreIntegrator\\Amazon\\XMLBuilder -->
<g id="node13" class="node"><title>\\StoreIntegrator\\Amazon\\XMLBuilder</title>
<polygon fill="none" stroke="black" points="469.79,-158 385.79,-158 385.79,-122 469.79,-122 469.79,-158"/>
<text text-anchor="start" x="393.79" y="-143.2" font-family="Courier,monospace" font-size="11.00">«abstract»</text>
<text text-anchor="start" x="393.79" y="-131.2" font-family="Courier,monospace" font-size="11.00">XMLBuilder</text>
</g>
<!-- \\StoreIntegrator\\Amazon\\ProductFeed -->
<g id="node14" class="node"><title>\\StoreIntegrator\\Amazon\\ProductFeed</title>
<polygon fill="none" stroke="black" points="736.08,-158 645.08,-158 645.08,-122 736.08,-122 736.08,-158"/>
<text text-anchor="middle" x="690.58" y="-137.2" font-family="Courier,monospace" font-size="11.00">ProductFeed</text>
</g>
<!-- \\StoreIntegrator\\Amazon\\ProductFeed&#45;&gt;\\StoreIntegrator\\Amazon\\XMLBuilder -->
<g id="edge7" class="edge"><title>\\StoreIntegrator\\Amazon\\ProductFeed&#45;&gt;\\StoreIntegrator\\Amazon\\XMLBuilder</title>
<path fill="none" stroke="black" d="M645.045,-140C599.37,-140 528.395,-140 480.322,-140"/>
<polygon fill="none" stroke="black" points="480.129,-136.5 470.129,-140 480.129,-143.5 480.129,-136.5"/>
</g>
<!-- \\StoreIntegrator\\Amazon\\AmazonProduct -->
<g id="node15" class="node"><title>\\StoreIntegrator\\Amazon\\AmazonProduct</title>
<polygon fill="none" stroke="black" points="742.58,-104 638.58,-104 638.58,-68 742.58,-68 742.58,-104"/>
<text text-anchor="middle" x="690.58" y="-83.2" font-family="Courier,monospace" font-size="11.00">AmazonProduct</text>
</g>
<!-- \\StoreIntegrator\\Product -->
<g id="node16" class="node"><title>\\StoreIntegrator\\Product</title>
<polygon fill="none" stroke="black" points="459.79,-230 395.79,-230 395.79,-194 459.79,-194 459.79,-230"/>
<text text-anchor="middle" x="427.79" y="-209.2" font-family="Courier,monospace" font-size="11.00">Product</text>
</g>
<!-- \\StoreIntegrator\\Amazon\\AmazonProduct&#45;&gt;\\StoreIntegrator\\Product -->
<g id="edge8" class="edge"><title>\\StoreIntegrator\\Amazon\\AmazonProduct&#45;&gt;\\StoreIntegrator\\Product</title>
<path fill="none" stroke="black" d="M638.388,-99.7086C629.086,-103.298 619.752,-107.692 611.58,-113 572.29,-138.523 580.528,-167.231 539.58,-190 518.423,-201.765 491.908,-207.299 470.122,-209.876"/>
<polygon fill="none" stroke="black" points="469.76,-206.394 460.167,-210.891 470.47,-213.358 469.76,-206.394"/>
</g>
<!-- \\Sabre\\Xml\\XmlSerializable -->
<g id="node18" class="node"><title>\\Sabre\\Xml\\XmlSerializable</title>
<ellipse fill="none" stroke="black" cx="427.79" cy="-18" rx="111.581" ry="18"/>
<text text-anchor="middle" x="427.79" y="-14.3" font-family="Times,serif" font-size="14.00" fill="gray">\Sabre\Xml\XmlSerializable</text>
</g>
<!-- \\StoreIntegrator\\Amazon\\AmazonProduct&#45;&gt;\\Sabre\\Xml\\XmlSerializable -->
<g id="edge9" class="edge"><title>\\StoreIntegrator\\Amazon\\AmazonProduct&#45;&gt;\\Sabre\\Xml\\XmlSerializable</title>
<path fill="none" stroke="black" stroke-dasharray="1,5" d="M638.368,-72.6465C598.098,-62.1465 541.614,-47.4185 497.43,-35.8977"/>
<polygon fill="none" stroke="black" points="498.189,-32.4784 487.629,-33.342 496.422,-39.2519 498.189,-32.4784"/>
</g>
<!-- \\StoreIntegrator\\ShippingService&#45;&gt;\\StoreIntegrator\\Contracts\\ShippingServiceInterface -->
<g id="edge6" class="edge"><title>\\StoreIntegrator\\ShippingService&#45;&gt;\\StoreIntegrator\\Contracts\\ShippingServiceInterface</title>
<path fill="none" stroke="black" stroke-dasharray="1,5" d="M368.657,-648.754C351.665,-645.387 333.073,-641.624 316,-638 286.916,-631.827 255.222,-624.77 226.794,-618.318"/>
<polygon fill="none" stroke="black" points="227.411,-614.87 216.884,-616.064 225.859,-621.695 227.411,-614.87"/>
</g>
</g>
</svg>
