<?xml version="1.0" encoding="UTF-8" standalone="no"?>
<!DOCTYPE svg PUBLIC "-//W3C//DTD SVG 1.1//EN"
 "http://www.w3.org/Graphics/SVG/1.1/DTD/svg11.dtd">
<!-- Generated by graphviz version 2.38.0 (20140413.2041)
 -->
<!-- Title: G Pages: 1 -->
<svg width="810pt" height="1058pt"
 viewBox="0.00 0.00 809.58 1058.00" xmlns="http://www.w3.org/2000/svg" xmlns:xlink="http://www.w3.org/1999/xlink">
<g id="graph0" class="graph" transform="scale(1 1) rotate(0) translate(4 1054)">
<title>G</title>
<polygon fill="white" stroke="none" points="-4,4 -4,-1054 805.58,-1054 805.58,4 -4,4"/>
<g id="clust1" class="cluster"><title>cluster_Global</title>
<path fill="none" stroke="gray" d="M20,-98C20,-98 781.58,-98 781.58,-98 787.58,-98 793.58,-104 793.58,-110 793.58,-110 793.58,-1030 793.58,-1030 793.58,-1036 787.58,-1042 781.58,-1042 781.58,-1042 20,-1042 20,-1042 14,-1042 8,-1036 8,-1030 8,-1030 8,-110 8,-110 8,-104 14,-98 20,-98"/>
<text text-anchor="middle" x="400.79" y="-1029.2" font-family="Times,serif" font-size="11.00" fill="gray">Global</text>
</g>
<g id="clust2" class="cluster"><title>cluster_\StoreIntegrator</title>
<path fill="none" stroke="gray" d="M28,-106C28,-106 773.58,-106 773.58,-106 779.58,-106 785.58,-112 785.58,-118 785.58,-118 785.58,-1002 785.58,-1002 785.58,-1008 779.58,-1014 773.58,-1014 773.58,-1014 28,-1014 28,-1014 22,-1014 16,-1008 16,-1002 16,-1002 16,-118 16,-118 16,-112 22,-106 28,-106"/>
<text text-anchor="middle" x="400.79" y="-1001.2" font-family="Times,serif" font-size="11.00" fill="gray">StoreIntegrator</text>
</g>
<g id="clust3" class="cluster"><title>cluster_\StoreIntegrator\Contracts</title>
<path fill="none" stroke="gray" d="M36,-752C36,-752 240,-752 240,-752 246,-752 252,-758 252,-764 252,-764 252,-974 252,-974 252,-980 246,-986 240,-986 240,-986 36,-986 36,-986 30,-986 24,-980 24,-974 24,-974 24,-764 24,-764 24,-758 30,-752 36,-752"/>
<text text-anchor="middle" x="138" y="-973.2" font-family="Times,serif" font-size="11.00" fill="gray">Contracts</text>
</g>
<g id="clust4" class="cluster"><title>cluster_\StoreIntegrator\eBay</title>
<path fill="none" stroke="gray" d="M386.29,-472C386.29,-472 765.58,-472 765.58,-472 771.58,-472 777.58,-478 777.58,-484 777.58,-484 777.58,-910 777.58,-910 777.58,-916 771.58,-922 765.58,-922 765.58,-922 386.29,-922 386.29,-922 380.29,-922 374.29,-916 374.29,-910 374.29,-910 374.29,-484 374.29,-484 374.29,-478 380.29,-472 386.29,-472"/>
<text text-anchor="middle" x="575.935" y="-909.2" font-family="Times,serif" font-size="11.00" fill="gray">eBay</text>
</g>
<g id="clust5" class="cluster"><title>cluster_\StoreIntegrator\Amazon</title>
<path fill="none" stroke="gray" d="M389.79,-294C389.79,-294 738.58,-294 738.58,-294 744.58,-294 750.58,-300 750.58,-306 750.58,-306 750.58,-408 750.58,-408 750.58,-414 744.58,-420 738.58,-420 738.58,-420 389.79,-420 389.79,-420 383.79,-420 377.79,-414 377.79,-408 377.79,-408 377.79,-306 377.79,-306 377.79,-300 383.79,-294 389.79,-294"/>
<text text-anchor="middle" x="564.185" y="-407.2" font-family="Times,serif" font-size="11.00" fill="gray">Amazon</text>
</g>
<g id="clust6" class="cluster"><title>cluster_\StoreIntegrator\Exceptions</title>
<path fill="none" stroke="gray" d="M622.08,-160C622.08,-160 759.08,-160 759.08,-160 765.08,-160 771.08,-166 771.08,-172 771.08,-172 771.08,-274 771.08,-274 771.08,-280 765.08,-286 759.08,-286 759.08,-286 622.08,-286 622.08,-286 616.08,-286 610.08,-280 610.08,-274 610.08,-274 610.08,-172 610.08,-172 610.08,-166 616.08,-160 622.08,-160"/>
<text text-anchor="middle" x="690.58" y="-273.2" font-family="Times,serif" font-size="11.00" fill="gray">Exceptions</text>
</g>
<!-- \\StoreIntegrator\\Contracts\\OrderIntegratorInterface -->
<g id="node1" class="node"><title>\\StoreIntegrator\\Contracts\\OrderIntegratorInterface</title>
<polygon fill="none" stroke="black" points="227.5,-958 48.5,-958 48.5,-922 227.5,-922 227.5,-958"/>
<text text-anchor="middle" x="138" y="-937.2" font-family="Courier,monospace" font-size="11.00">OrderIntegratorInterface</text>
</g>
<!-- \\StoreIntegrator\\Contracts\\CategoriesAggregatorInterface -->
<g id="node2" class="node"><title>\\StoreIntegrator\\Contracts\\CategoriesAggregatorInterface</title>
<polygon fill="none" stroke="black" points="244,-796 32,-796 32,-760 244,-760 244,-796"/>
<text text-anchor="middle" x="138" y="-775.2" font-family="Courier,monospace" font-size="11.00">CategoriesAggregatorInterface</text>
</g>
<!-- \\StoreIntegrator\\Contracts\\ShippingServiceInterface -->
<g id="node3" class="node"><title>\\StoreIntegrator\\Contracts\\ShippingServiceInterface</title>
<polygon fill="none" stroke="black" points="227.5,-904 48.5,-904 48.5,-868 227.5,-868 227.5,-904"/>
<text text-anchor="middle" x="138" y="-883.2" font-family="Courier,monospace" font-size="11.00">ShippingServiceInterface</text>
</g>
<!-- \\StoreIntegrator\\Contracts\\ProductIntegratorInterface -->
<g id="node4" class="node"><title>\\StoreIntegrator\\Contracts\\ProductIntegratorInterface</title>
<polygon fill="none" stroke="black" points="234,-850 42,-850 42,-814 234,-814 234,-850"/>
<text text-anchor="middle" x="138" y="-829.2" font-family="Courier,monospace" font-size="11.00">ProductIntegratorInterface</text>
</g>
<!-- \\StoreIntegrator\\eBay\\EbayProductIntegrator -->
<g id="node5" class="node"><title>\\StoreIntegrator\\eBay\\EbayProductIntegrator</title>
<polygon fill="none" stroke="black" points="769.58,-786 611.58,-786 611.58,-750 769.58,-750 769.58,-786"/>
<text text-anchor="middle" x="690.58" y="-765.2" font-family="Courier,monospace" font-size="11.00">EbayProductIntegrator</text>
</g>
<!-- \\StoreIntegrator\\eBay\\EbayProductIntegrator&#45;&gt;\\StoreIntegrator\\Contracts\\CategoriesAggregatorInterface -->
<g id="edge2" class="edge"><title>\\StoreIntegrator\\eBay\\EbayProductIntegrator&#45;&gt;\\StoreIntegrator\\Contracts\\CategoriesAggregatorInterface</title>
<path fill="none" stroke="black" stroke-dasharray="1,5" d="M611.432,-782.045C559.786,-790.595 490.488,-800.678 428.79,-805"/>
<path fill="none" stroke="black" stroke-dasharray="1,5" d="M426.79,-805C369.532,-809.011 305.989,-804.048 253.208,-797.33"/>
<polygon fill="none" stroke="black" points="253.512,-793.839 243.142,-796.011 252.602,-800.78 253.512,-793.839"/>
</g>
<!-- \\StoreIntegrator\\eBay\\EbayProductIntegrator&#45;&gt;\\StoreIntegrator\\Contracts\\ProductIntegratorInterface -->
<g id="edge1" class="edge"><title>\\StoreIntegrator\\eBay\\EbayProductIntegrator&#45;&gt;\\StoreIntegrator\\Contracts\\ProductIntegratorInterface</title>
<path fill="none" stroke="black" stroke-dasharray="1,5" d="M426.79,-805C377.62,-808.444 365.115,-805.846 316,-810 292.781,-811.964 267.919,-814.674 244.386,-817.522"/>
<polygon fill="none" stroke="black" points="243.889,-814.057 234.39,-818.749 244.742,-821.005 243.889,-814.057"/>
</g>
<!-- \\StoreIntegrator\\eBay\\EbayShippingService -->
<g id="node6" class="node"><title>\\StoreIntegrator\\eBay\\EbayShippingService</title>
<polygon fill="none" stroke="black" points="763.08,-840 618.08,-840 618.08,-804 763.08,-804 763.08,-840"/>
<text text-anchor="middle" x="690.58" y="-819.2" font-family="Courier,monospace" font-size="11.00">EbayShippingService</text>
</g>
<!-- \\StoreIntegrator\\ShippingService -->
<g id="node21" class="node"><title>\\StoreIntegrator\\ShippingService</title>
<polygon fill="none" stroke="black" points="486.79,-966 368.79,-966 368.79,-930 486.79,-930 486.79,-966"/>
<text text-anchor="start" x="393.79" y="-951.2" font-family="Courier,monospace" font-size="11.00">«abstract»</text>
<text text-anchor="start" x="376.79" y="-939.2" font-family="Courier,monospace" font-size="11.00">ShippingService</text>
</g>
<!-- \\StoreIntegrator\\eBay\\EbayShippingService&#45;&gt;\\StoreIntegrator\\ShippingService -->
<g id="edge3" class="edge"><title>\\StoreIntegrator\\eBay\\EbayShippingService&#45;&gt;\\StoreIntegrator\\ShippingService</title>
<path fill="none" stroke="black" d="M626.544,-840.042C620.79,-842.678 615.206,-845.653 610.08,-849 571.228,-874.367 580.013,-903.238 539.58,-926 526.668,-933.269 511.726,-938.164 497.077,-941.452"/>
<polygon fill="none" stroke="black" points="496.122,-938.074 487.011,-943.482 497.506,-944.936 496.122,-938.074"/>
</g>
<!-- \\StoreIntegrator\\eBay\\OrdersWrapper -->
<g id="node7" class="node"><title>\\StoreIntegrator\\eBay\\OrdersWrapper</title>
<polygon fill="none" stroke="black" points="742.58,-678 638.58,-678 638.58,-642 742.58,-642 742.58,-678"/>
<text text-anchor="middle" x="690.58" y="-657.2" font-family="Courier,monospace" font-size="11.00">OrdersWrapper</text>
</g>
<!-- \\StoreIntegrator\\eBay\\EbayWrapper -->
<g id="node12" class="node"><title>\\StoreIntegrator\\eBay\\EbayWrapper</title>
<polygon fill="none" stroke="black" points="473.29,-624 382.29,-624 382.29,-588 473.29,-588 473.29,-624"/>
<text text-anchor="start" x="393.79" y="-609.2" font-family="Courier,monospace" font-size="11.00">«abstract»</text>
<text text-anchor="start" x="390.29" y="-597.2" font-family="Courier,monospace" font-size="11.00">EbayWrapper</text>
</g>
<!-- \\StoreIntegrator\\eBay\\OrdersWrapper&#45;&gt;\\StoreIntegrator\\eBay\\EbayWrapper -->
<g id="edge4" class="edge"><title>\\StoreIntegrator\\eBay\\OrdersWrapper&#45;&gt;\\StoreIntegrator\\eBay\\EbayWrapper</title>
<path fill="none" stroke="black" d="M638.368,-649.396C593.685,-640.144 529.039,-626.758 483.385,-617.305"/>
<polygon fill="none" stroke="black" points="483.871,-613.831 473.369,-615.231 482.452,-620.686 483.871,-613.831"/>
</g>
<!-- \\StoreIntegrator\\eBay\\CategoriesWrapper -->
<g id="node8" class="node"><title>\\StoreIntegrator\\eBay\\CategoriesWrapper</title>
<polygon fill="none" stroke="black" points="756.08,-624 625.08,-624 625.08,-588 756.08,-588 756.08,-624"/>
<text text-anchor="middle" x="690.58" y="-603.2" font-family="Courier,monospace" font-size="11.00">CategoriesWrapper</text>
</g>
<!-- \\StoreIntegrator\\eBay\\CategoriesWrapper&#45;&gt;\\StoreIntegrator\\eBay\\EbayWrapper -->
<g id="edge5" class="edge"><title>\\StoreIntegrator\\eBay\\CategoriesWrapper&#45;&gt;\\StoreIntegrator\\eBay\\EbayWrapper</title>
<path fill="none" stroke="black" d="M624.78,-606C581.391,-606 524.9,-606 483.721,-606"/>
<polygon fill="none" stroke="black" points="483.598,-602.5 473.598,-606 483.598,-609.5 483.598,-602.5"/>
</g>
<!-- \\StoreIntegrator\\eBay\\DetailsWrapper -->
<g id="node9" class="node"><title>\\StoreIntegrator\\eBay\\DetailsWrapper</title>
<polygon fill="none" stroke="black" points="746.08,-570 635.08,-570 635.08,-534 746.08,-534 746.08,-570"/>
<text text-anchor="middle" x="690.58" y="-549.2" font-family="Courier,monospace" font-size="11.00">DetailsWrapper</text>
</g>
<!-- \\StoreIntegrator\\eBay\\DetailsWrapper&#45;&gt;\\StoreIntegrator\\eBay\\EbayWrapper -->
<g id="edge11" class="edge"><title>\\StoreIntegrator\\eBay\\DetailsWrapper&#45;&gt;\\StoreIntegrator\\eBay\\EbayWrapper</title>
<path fill="none" stroke="black" d="M634.761,-563.889C606.374,-569.997 571.137,-577.501 539.58,-584 521.272,-587.77 501.237,-591.783 483.3,-595.335"/>
<polygon fill="none" stroke="black" points="482.426,-591.94 473.294,-597.312 483.783,-598.807 482.426,-591.94"/>
</g>
<!-- \\StoreIntegrator\\eBay\\EbayOrderIntegrator -->
<g id="node10" class="node"><title>\\StoreIntegrator\\eBay\\EbayOrderIntegrator</title>
<polygon fill="none" stroke="black" points="763.08,-894 618.08,-894 618.08,-858 763.08,-858 763.08,-894"/>
<text text-anchor="middle" x="690.58" y="-873.2" font-family="Courier,monospace" font-size="11.00">EbayOrderIntegrator</text>
</g>
<!-- \\StoreIntegrator\\eBay\\EbayOrderIntegrator&#45;&gt;\\StoreIntegrator\\Contracts\\OrderIntegratorInterface -->
<g id="edge12" class="edge"><title>\\StoreIntegrator\\eBay\\EbayOrderIntegrator&#45;&gt;\\StoreIntegrator\\Contracts\\OrderIntegratorInterface</title>
<path fill="none" stroke="black" stroke-dasharray="1,5" d="M671.283,-894.392C644.904,-919.46 593.414,-963.163 539.58,-980 423.797,-1016.21 280.865,-984.929 200.829,-961.031"/>
<polygon fill="none" stroke="black" points="201.498,-957.576 190.912,-958.011 199.459,-964.273 201.498,-957.576"/>
</g>
<!-- \\StoreIntegrator\\eBay\\ProductWrapper -->
<g id="node11" class="node"><title>\\StoreIntegrator\\eBay\\ProductWrapper</title>
<polygon fill="none" stroke="black" points="746.08,-516 635.08,-516 635.08,-480 746.08,-480 746.08,-516"/>
<text text-anchor="middle" x="690.58" y="-495.2" font-family="Courier,monospace" font-size="11.00">ProductWrapper</text>
</g>
<!-- \\StoreIntegrator\\eBay\\ProductWrapper&#45;&gt;\\StoreIntegrator\\eBay\\EbayWrapper -->
<g id="edge13" class="edge"><title>\\StoreIntegrator\\eBay\\ProductWrapper&#45;&gt;\\StoreIntegrator\\eBay\\EbayWrapper</title>
<path fill="none" stroke="black" d="M634.962,-513.547C626.402,-516.829 617.831,-520.643 610.08,-525 574.464,-545.021 576.434,-566.36 539.58,-584 522.268,-592.287 501.999,-597.453 483.565,-600.673"/>
<polygon fill="none" stroke="black" points="482.868,-597.24 473.543,-602.269 483.969,-604.153 482.868,-597.24"/>
</g>
<!-- \\StoreIntegrator\\eBay\\ProductUpdateWrapper -->
<g id="node13" class="node"><title>\\StoreIntegrator\\eBay\\ProductUpdateWrapper</title>
<polygon fill="none" stroke="black" points="766.58,-732 614.58,-732 614.58,-696 766.58,-696 766.58,-732"/>
<text text-anchor="middle" x="690.58" y="-711.2" font-family="Courier,monospace" font-size="11.00">ProductUpdateWrapper</text>
</g>
<!-- \\StoreIntegrator\\eBay\\ProductUpdateWrapper&#45;&gt;\\StoreIntegrator\\eBay\\EbayWrapper -->
<g id="edge14" class="edge"><title>\\StoreIntegrator\\eBay\\ProductUpdateWrapper&#45;&gt;\\StoreIntegrator\\eBay\\EbayWrapper</title>
<path fill="none" stroke="black" d="M634.17,-695.919C626.047,-693.055 617.815,-690.034 610.08,-687 563.828,-668.858 512.196,-645.471 475.9,-628.495"/>
<polygon fill="none" stroke="black" points="477.091,-625.187 466.552,-624.105 474.116,-631.524 477.091,-625.187"/>
</g>
<!-- \\StoreIntegrator\\Amazon\\XMLBuilder -->
<g id="node14" class="node"><title>\\StoreIntegrator\\Amazon\\XMLBuilder</title>
<polygon fill="none" stroke="black" points="469.79,-392 385.79,-392 385.79,-356 469.79,-356 469.79,-392"/>
<text text-anchor="start" x="393.79" y="-377.2" font-family="Courier,monospace" font-size="11.00">«abstract»</text>
<text text-anchor="start" x="393.79" y="-365.2" font-family="Courier,monospace" font-size="11.00">XMLBuilder</text>
</g>
<!-- \\StoreIntegrator\\Amazon\\ProductFeed -->
<g id="node15" class="node"><title>\\StoreIntegrator\\Amazon\\ProductFeed</title>
<polygon fill="none" stroke="black" points="736.08,-392 645.08,-392 645.08,-356 736.08,-356 736.08,-392"/>
<text text-anchor="middle" x="690.58" y="-371.2" font-family="Courier,monospace" font-size="11.00">ProductFeed</text>
</g>
<!-- \\StoreIntegrator\\Amazon\\ProductFeed&#45;&gt;\\StoreIntegrator\\Amazon\\XMLBuilder -->
<g id="edge7" class="edge"><title>\\StoreIntegrator\\Amazon\\ProductFeed&#45;&gt;\\StoreIntegrator\\Amazon\\XMLBuilder</title>
<path fill="none" stroke="black" d="M645.045,-374C599.37,-374 528.395,-374 480.322,-374"/>
<polygon fill="none" stroke="black" points="480.129,-370.5 470.129,-374 480.129,-377.5 480.129,-370.5"/>
</g>
<!-- \\StoreIntegrator\\Amazon\\AmazonProduct -->
<g id="node16" class="node"><title>\\StoreIntegrator\\Amazon\\AmazonProduct</title>
<polygon fill="none" stroke="black" points="742.58,-338 638.58,-338 638.58,-302 742.58,-302 742.58,-338"/>
<text text-anchor="middle" x="690.58" y="-317.2" font-family="Courier,monospace" font-size="11.00">AmazonProduct</text>
</g>
<!-- \\StoreIntegrator\\Product -->
<g id="node20" class="node"><title>\\StoreIntegrator\\Product</title>
<polygon fill="none" stroke="black" points="459.79,-464 395.79,-464 395.79,-428 459.79,-428 459.79,-464"/>
<text text-anchor="middle" x="427.79" y="-443.2" font-family="Courier,monospace" font-size="11.00">Product</text>
</g>
<!-- \\StoreIntegrator\\Amazon\\AmazonProduct&#45;&gt;\\StoreIntegrator\\Product -->
<g id="edge9" class="edge"><title>\\StoreIntegrator\\Amazon\\AmazonProduct&#45;&gt;\\StoreIntegrator\\Product</title>
<path fill="none" stroke="black" d="M638.192,-333.214C628.439,-336.875 618.624,-341.422 610.08,-347 571.228,-372.367 580.013,-401.238 539.58,-424 518.485,-435.876 491.972,-441.414 470.172,-443.965"/>
<polygon fill="none" stroke="black" points="469.809,-440.484 460.209,-444.966 470.509,-447.449 469.809,-440.484"/>
</g>
<!-- \\Sabre\\Xml\\XmlSerializable -->
<g id="node23" class="node"><title>\\Sabre\\Xml\\XmlSerializable</title>
<ellipse fill="none" stroke="black" cx="427.79" cy="-72" rx="111.581" ry="18"/>
<text text-anchor="middle" x="427.79" y="-68.3" font-family="Times,serif" font-size="14.00" fill="gray">\Sabre\Xml\XmlSerializable</text>
</g>
<!-- \\StoreIntegrator\\Amazon\\AmazonProduct&#45;&gt;\\Sabre\\Xml\\XmlSerializable -->
<g id="edge10" class="edge"><title>\\StoreIntegrator\\Amazon\\AmazonProduct&#45;&gt;\\Sabre\\Xml\\XmlSerializable</title>
<path fill="none" stroke="black" stroke-dasharray="1,5" d="M638.399,-305.163C628.525,-301.091 618.611,-296.077 610.08,-290 534.689,-236.296 472.237,-143.863 444.394,-98.5754"/>
<polygon fill="none" stroke="black" points="447.319,-96.6485 439.139,-89.9146 441.334,-100.28 447.319,-96.6485"/>
</g>
<!-- \\StoreIntegrator\\Exceptions\\ValidationException -->
<g id="node17" class="node"><title>\\StoreIntegrator\\Exceptions\\ValidationException</title>
<polygon fill="none" stroke="black" points="763.08,-258 618.08,-258 618.08,-222 763.08,-222 763.08,-258"/>
<text text-anchor="middle" x="690.58" y="-237.2" font-family="Courier,monospace" font-size="11.00">ValidationException</text>
</g>
<!-- \\Exception -->
<g id="node22" class="node"><title>\\Exception</title>
<ellipse fill="none" stroke="black" cx="427.79" cy="-18" rx="48.9926" ry="18"/>
<text text-anchor="middle" x="427.79" y="-14.3" font-family="Times,serif" font-size="14.00" fill="gray">\Exception</text>
</g>
<!-- \\StoreIntegrator\\Exceptions\\ValidationException&#45;&gt;\\Exception -->
<g id="edge8" class="edge"><title>\\StoreIntegrator\\Exceptions\\ValidationException&#45;&gt;\\Exception</title>
<path fill="none" stroke="black" d="M622.092,-221.927C617.769,-219.338 613.705,-216.38 610.08,-213 550.856,-157.779 601.185,-97.5518 539.58,-45 524.77,-32.3665 504.992,-25.4546 486.248,-21.7329"/>
<polygon fill="none" stroke="black" points="486.725,-18.2636 476.276,-20.0207 485.54,-25.1627 486.725,-18.2636"/>
</g>
<!-- \\StoreIntegrator\\Exceptions\\EbayErrorException -->
<g id="node18" class="node"><title>\\StoreIntegrator\\Exceptions\\EbayErrorException</title>
<polygon fill="none" stroke="black" points="759.58,-204 621.58,-204 621.58,-168 759.58,-168 759.58,-204"/>
<text text-anchor="middle" x="690.58" y="-183.2" font-family="Courier,monospace" font-size="11.00">EbayErrorException</text>
</g>
<!-- \\StoreIntegrator\\Exceptions\\EbayErrorException&#45;&gt;\\Exception -->
<g id="edge15" class="edge"><title>\\StoreIntegrator\\Exceptions\\EbayErrorException&#45;&gt;\\Exception</title>
<path fill="none" stroke="black" d="M621.467,-171.14C617.444,-169.064 613.606,-166.697 610.08,-164 561.252,-126.652 588.98,-81.5884 539.58,-45 524.072,-33.5137 504.31,-26.8601 485.783,-23.0243"/>
<polygon fill="none" stroke="black" points="486.413,-19.5815 475.945,-21.2174 485.148,-26.4663 486.413,-19.5815"/>
</g>
<!-- \\StoreIntegrator\\Store -->
<g id="node19" class="node"><title>\\StoreIntegrator\\Store</title>
<polygon fill="none" stroke="black" points="717.58,-150 663.58,-150 663.58,-114 717.58,-114 717.58,-150"/>
<text text-anchor="middle" x="690.58" y="-129.2" font-family="Courier,monospace" font-size="11.00">Store</text>
</g>
<!-- \\StoreIntegrator\\ShippingService&#45;&gt;\\StoreIntegrator\\Contracts\\ShippingServiceInterface -->
<g id="edge6" class="edge"><title>\\StoreIntegrator\\ShippingService&#45;&gt;\\StoreIntegrator\\Contracts\\ShippingServiceInterface</title>
<path fill="none" stroke="black" stroke-dasharray="1,5" d="M368.657,-936.754C351.665,-933.387 333.073,-929.624 316,-926 286.916,-919.827 255.222,-912.77 226.794,-906.318"/>
<polygon fill="none" stroke="black" points="227.411,-902.87 216.884,-904.064 225.859,-909.695 227.411,-902.87"/>
</g>
</g>
</svg>
